<?xml version="1.0" standalone="no"?>
<!DOCTYPE svg PUBLIC "-//W3C//DTD SVG 20010904//EN"
 "http://www.w3.org/TR/2001/REC-SVG-20010904/DTD/svg10.dtd">
<svg version="1.0" xmlns="http://www.w3.org/2000/svg"
 width="225.000000pt" height="225.000000pt" viewBox="0 0 225.000000 225.000000"
 preserveAspectRatio="xMidYMid meet">
<metadata>
Created by potrace 1.14, written by Peter Selinger 2001-2017
</metadata>
<g transform="translate(0.000000,225.000000) scale(0.100000,-0.100000)"
fill="#000000" stroke="none">
<path d="M187 2232 c-14 -15 -17 -41 -17 -139 0 -107 2 -122 20 -138 17 -15
24 -16 45 -7 24 11 25 15 25 112 l0 100 91 0 c100 0 129 10 129 43 0 42 -17
47 -150 47 -110 0 -129 -2 -143 -18z"/>
<path d="M985 2240 c-112 -23 -197 -72 -279 -161 -98 -106 -143 -237 -133
-384 l6 -80 -32 -15 c-39 -19 -77 -73 -77 -113 0 -46 138 -307 173 -326 19
-11 42 -43 69 -96 45 -88 88 -156 125 -196 19 -20 24 -35 21 -64 -3 -38 -3
-38 -78 -62 -41 -13 -131 -51 -200 -85 -111 -54 -134 -70 -206 -142 -86 -86
-132 -163 -159 -266 -18 -68 -20 -221 -3 -238 9 -9 105 -12 369 -12 312 0 360
2 373 16 9 8 16 22 16 29 0 7 -7 21 -16 29 -13 14 -59 16 -346 16 l-330 0 7
53 c26 203 126 336 329 437 87 43 246 105 251 97 1 -1 14 -28 29 -60 70 -145
252 -189 384 -94 40 28 86 93 103 146 6 16 130 -27 254 -89 201 -99 302 -234
330 -437 l7 -53 -330 0 c-287 0 -333 -2 -346 -16 -20 -20 -20 -38 0 -58 13
-14 61 -16 373 -16 264 0 360 3 369 12 17 17 15 170 -3 238 -45 168 -166 308
-345 400 -58 29 -148 68 -200 86 l-95 32 -3 37 c-3 29 2 44 21 64 37 40 80
108 125 196 27 53 50 85 69 96 35 19 173 280 173 326 0 40 -38 95 -78 113 -29
13 -32 18 -27 45 3 17 9 95 12 175 4 133 3 150 -18 205 -31 82 -122 174 -199
201 -79 26 -175 25 -221 -3 l-35 -22 -49 24 c-51 26 -103 30 -180 15z m165
-105 c19 -14 47 -25 62 -25 16 0 46 11 66 25 93 63 256 -7 308 -132 20 -47 28
-138 19 -228 l-7 -77 -36 35 c-21 19 -56 47 -80 61 -48 30 -82 78 -82 118 0
16 -9 33 -22 42 -34 24 -61 1 -70 -58 -12 -85 -72 -153 -156 -176 -59 -15
-106 -5 -187 44 -63 37 -76 41 -136 41 -57 0 -73 -4 -119 -33 l-53 -33 6 56
c12 113 97 245 196 303 113 66 231 81 291 37z m301 -426 c48 -24 86 -70 100
-122 18 -62 26 -69 71 -62 44 8 68 -6 68 -39 -1 -26 -124 -259 -133 -250 -9 9
-57 -24 -57 -39 0 -24 -71 -161 -115 -223 -137 -192 -383 -192 -520 0 -44 62
-115 199 -115 223 0 15 -39 43 -54 37 -13 -4 -136 224 -136 254 0 29 25 45 61
38 46 -9 69 8 69 50 0 45 33 106 70 127 43 26 108 22 153 -9 142 -96 300 -85
404 29 l47 52 25 -23 c15 -13 42 -32 62 -43z m-450 -945 c58 -21 190 -21 248
0 24 9 45 16 47 16 2 0 4 -15 4 -33 0 -107 -75 -187 -175 -187 -100 0 -175 80
-175 187 0 18 2 33 4 33 2 0 23 -7 47 -16z"/>
<path d="M1782 2238 c-18 -18 -14 -56 7 -68 11 -5 60 -10 110 -10 l91 0 0
-100 c0 -97 1 -101 25 -112 21 -9 28 -8 45 7 18 16 20 31 20 140 0 159 5 155
-161 155 -84 0 -129 -4 -137 -12z"/>
<path d="M186 1024 c-13 -12 -16 -40 -16 -138 0 -160 -4 -156 154 -156 128 0
156 8 156 45 0 35 -27 45 -129 45 l-91 0 0 98 c0 101 -7 122 -41 122 -10 0
-25 -7 -33 -16z"/>
<path d="M2002 1028 c-8 -8 -12 -47 -12 -110 l0 -98 -91 0 c-102 0 -129 -10
-129 -45 0 -37 28 -45 159 -45 153 0 151 -2 151 162 0 93 -3 120 -16 132 -18
19 -45 21 -62 4z"/>
<path d="M1096 74 c-9 -8 -16 -22 -16 -29 0 -18 27 -45 45 -45 18 0 45 27 45
45 0 18 -27 45 -45 45 -7 0 -21 -7 -29 -16z"/>
</g>
</svg>
